<?xml version="1.0" standalone="no"?>
<!DOCTYPE svg PUBLIC "-//W3C//DTD SVG 20010904//EN"
 "http://www.w3.org/TR/2001/REC-SVG-20010904/DTD/svg10.dtd">
<svg version="1.0" xmlns="http://www.w3.org/2000/svg"
 width="115.000000pt" height="115.000000pt" viewBox="0 0 115.000000 115.000000"
 preserveAspectRatio="xMidYMid meet">

<g transform="translate(0.000000,115.000000) scale(0.100000,-0.100000)"
fill="#000000" stroke="none">
<path d="M117 795 c-47 -16 -71 -37 -91 -80 -35 -74 -11 -169 54 -213 30 -20
45 -23 97 -20 50 3 65 8 83 28 l21 25 -6 -40 c-17 -99 -83 -161 -143 -133 -15
7 -33 26 -40 41 -10 20 -20 27 -43 27 -35 0 -38 -20 -9 -68 55 -90 221 -79
270 17 46 91 45 259 -2 344 -38 68 -118 99 -191 72z m97 -56 c38 -18 62 -86
46 -133 -21 -64 -77 -91 -133 -65 -31 14 -47 48 -47 100 0 33 7 48 34 75 36
36 59 41 100 23z"/>
<path d="M451 688 c-12 -62 -21 -119 -21 -125 0 -24 48 -26 85 -4 50 29 96 27
128 -5 33 -32 43 -81 27 -129 -14 -44 -48 -67 -95 -67 -41 0 -67 20 -86 63
-10 26 -17 30 -43 27 -27 -3 -31 -7 -28 -28 4 -30 29 -67 63 -93 55 -40 163
-30 214 21 36 35 46 65 46 130 0 116 -103 191 -207 152 -15 -6 -29 -8 -31 -6
-3 3 2 27 11 54 20 58 28 62 134 62 l72 0 0 30 0 30 -124 0 -124 0 -21 -112z"/>
<path d="M851 688 c-12 -62 -21 -119 -21 -125 0 -24 48 -26 85 -4 66 39 131
20 156 -46 13 -35 11 -60 -7 -99 -20 -41 -44 -56 -91 -56 -39 0 -66 20 -84 63
-10 26 -17 30 -43 27 -27 -3 -31 -7 -28 -28 7 -54 66 -108 128 -117 91 -12
175 41 192 123 30 139 -81 250 -204 204 -15 -6 -29 -8 -31 -6 -3 3 2 27 11 54
20 58 28 62 134 62 l72 0 0 30 0 30 -124 0 -124 0 -21 -112z"/>
</g>
</svg>
